<?xml version="1.0" standalone="no"?>
<!DOCTYPE svg PUBLIC "-//W3C//DTD SVG 20010904//EN"
 "http://www.w3.org/TR/2001/REC-SVG-20010904/DTD/svg10.dtd">
<svg version="1.0" xmlns="http://www.w3.org/2000/svg"
 width="500.000000pt" height="500.000000pt" viewBox="0 0 500.000000 500.000000"
 preserveAspectRatio="xMidYMid meet">

<g transform="translate(0.000000,500.000000) scale(0.100000,-0.100000)"
fill="#000000" stroke="none">
<path d="M845 3738 c-3 -7 -4 -521 -3 -1143 l3 -1130 100 -5 100 -5 3 -89 c2
-50 8 -96 14 -103 8 -11 296 -13 1539 -13 1375 0 1529 2 1543 16 14 14 16 131
16 1139 0 1015 -2 1123 -16 1129 -9 3 -53 6 -99 6 -97 0 -95 -2 -95 105 0 40
-3 80 -6 89 -6 15 -151 16 -1550 16 -1227 0 -1546 -3 -1549 -12z m3055 -1138
l0 -1090 -1505 0 -1505 0 0 1090 0 1090 1505 0 1505 0 0 -1090z"/>
<path d="M1688 2782 c-103 -246 -217 -517 -253 -602 -36 -85 -68 -163 -71
-173 -5 -16 1 -18 72 -15 l78 3 62 150 61 150 230 3 230 2 10 -22 c6 -13 34
-83 62 -155 l53 -133 89 0 c49 0 89 3 89 6 0 3 -96 236 -214 518 -299 713
-292 696 -302 706 -5 5 -86 -176 -196 -438z m272 -125 c44 -114 80 -209 80
-212 0 -3 -76 -5 -170 -5 -93 0 -170 1 -170 3 0 4 99 252 142 355 17 40 32 71
34 69 2 -2 40 -96 84 -210z"/>
<path d="M2925 3171 c-110 -28 -182 -68 -256 -142 -236 -235 -238 -654 -4
-878 115 -110 233 -160 395 -168 114 -6 186 7 283 51 94 43 94 42 57 119 l-31
66 -57 -30 c-31 -16 -93 -37 -137 -46 -282 -57 -518 141 -518 437 0 188 97
346 259 422 113 53 246 49 365 -12 33 -16 64 -30 70 -30 5 0 19 21 30 48 44
100 46 90 -24 121 -133 61 -296 76 -432 42z"/>
</g>
</svg>
